<mxfile host="app.diagrams.net" modified="2023-01-17T18:26:08.153Z" agent="5.0 (Windows NT 10.0; Win64; x64) AppleWebKit/537.36 (KHTML, like Gecko) Chrome/108.0.0.0 Safari/537.36" etag="3nbF9kXC3tkZrddb-C5n" version="20.8.5" type="github">
  <diagram id="3eHicAqN5X4lOoIQ3E1A" name="Page-1">
    <mxGraphModel dx="1442" dy="1279" grid="1" gridSize="10" guides="1" tooltips="1" connect="1" arrows="1" fold="1" page="1" pageScale="1" pageWidth="1100" pageHeight="850" math="0" shadow="0">
      <root>
        <mxCell id="0" />
        <mxCell id="1" parent="0" />
        <mxCell id="6zNmI5sbzaLCzPCIBvBJ-7" style="edgeStyle=orthogonalEdgeStyle;rounded=0;orthogonalLoop=1;jettySize=auto;html=1;exitX=0.5;exitY=1;exitDx=0;exitDy=0;" parent="1" source="6zNmI5sbzaLCzPCIBvBJ-1" target="6zNmI5sbzaLCzPCIBvBJ-3" edge="1">
          <mxGeometry relative="1" as="geometry" />
        </mxCell>
        <mxCell id="6zNmI5sbzaLCzPCIBvBJ-11" style="edgeStyle=orthogonalEdgeStyle;rounded=0;orthogonalLoop=1;jettySize=auto;html=1;exitX=0.5;exitY=1;exitDx=0;exitDy=0;entryX=0.5;entryY=0;entryDx=0;entryDy=0;" parent="1" source="6zNmI5sbzaLCzPCIBvBJ-1" target="6zNmI5sbzaLCzPCIBvBJ-2" edge="1">
          <mxGeometry relative="1" as="geometry" />
        </mxCell>
        <mxCell id="6zNmI5sbzaLCzPCIBvBJ-1" value="Crypto" style="rounded=0;whiteSpace=wrap;html=1;" parent="1" vertex="1">
          <mxGeometry x="330" y="130" width="120" height="60" as="geometry" />
        </mxCell>
        <mxCell id="6zNmI5sbzaLCzPCIBvBJ-15" style="edgeStyle=orthogonalEdgeStyle;rounded=0;orthogonalLoop=1;jettySize=auto;html=1;exitX=0.5;exitY=1;exitDx=0;exitDy=0;entryX=0;entryY=0.25;entryDx=0;entryDy=0;" parent="1" source="6zNmI5sbzaLCzPCIBvBJ-2" target="6zNmI5sbzaLCzPCIBvBJ-13" edge="1">
          <mxGeometry relative="1" as="geometry" />
        </mxCell>
        <mxCell id="2RjPUOcPE3Qf726Q0wJO-13" style="edgeStyle=orthogonalEdgeStyle;rounded=0;orthogonalLoop=1;jettySize=auto;html=1;exitX=0;exitY=0.5;exitDx=0;exitDy=0;entryX=1.058;entryY=0.533;entryDx=0;entryDy=0;entryPerimeter=0;" edge="1" parent="1" source="6zNmI5sbzaLCzPCIBvBJ-2" target="2RjPUOcPE3Qf726Q0wJO-12">
          <mxGeometry relative="1" as="geometry" />
        </mxCell>
        <mxCell id="6zNmI5sbzaLCzPCIBvBJ-2" value="Payment Crypto" style="rounded=0;whiteSpace=wrap;html=1;" parent="1" vertex="1">
          <mxGeometry x="220" y="250" width="120" height="60" as="geometry" />
        </mxCell>
        <mxCell id="6zNmI5sbzaLCzPCIBvBJ-6" style="edgeStyle=orthogonalEdgeStyle;rounded=0;orthogonalLoop=1;jettySize=auto;html=1;exitX=0.5;exitY=1;exitDx=0;exitDy=0;entryX=0.5;entryY=0;entryDx=0;entryDy=0;" parent="1" source="6zNmI5sbzaLCzPCIBvBJ-3" target="6zNmI5sbzaLCzPCIBvBJ-4" edge="1">
          <mxGeometry relative="1" as="geometry" />
        </mxCell>
        <mxCell id="6zNmI5sbzaLCzPCIBvBJ-3" value="Smart Contract Platforms" style="rounded=0;whiteSpace=wrap;html=1;" parent="1" vertex="1">
          <mxGeometry x="400" y="250" width="120" height="60" as="geometry" />
        </mxCell>
        <mxCell id="6zNmI5sbzaLCzPCIBvBJ-14" style="edgeStyle=orthogonalEdgeStyle;rounded=0;orthogonalLoop=1;jettySize=auto;html=1;exitX=0.5;exitY=1;exitDx=0;exitDy=0;entryX=0.5;entryY=0;entryDx=0;entryDy=0;" parent="1" source="6zNmI5sbzaLCzPCIBvBJ-4" target="6zNmI5sbzaLCzPCIBvBJ-13" edge="1">
          <mxGeometry relative="1" as="geometry" />
        </mxCell>
        <mxCell id="6zNmI5sbzaLCzPCIBvBJ-17" style="edgeStyle=orthogonalEdgeStyle;rounded=0;orthogonalLoop=1;jettySize=auto;html=1;exitX=1;exitY=0.5;exitDx=0;exitDy=0;entryX=0;entryY=0.5;entryDx=0;entryDy=0;" parent="1" source="6zNmI5sbzaLCzPCIBvBJ-4" target="6zNmI5sbzaLCzPCIBvBJ-16" edge="1">
          <mxGeometry relative="1" as="geometry" />
        </mxCell>
        <mxCell id="6zNmI5sbzaLCzPCIBvBJ-19" style="edgeStyle=orthogonalEdgeStyle;rounded=0;orthogonalLoop=1;jettySize=auto;html=1;exitX=1;exitY=0.5;exitDx=0;exitDy=0;entryX=0;entryY=0.5;entryDx=0;entryDy=0;" parent="1" source="6zNmI5sbzaLCzPCIBvBJ-4" target="6zNmI5sbzaLCzPCIBvBJ-18" edge="1">
          <mxGeometry relative="1" as="geometry" />
        </mxCell>
        <mxCell id="6zNmI5sbzaLCzPCIBvBJ-4" value="Protocols" style="rounded=0;whiteSpace=wrap;html=1;" parent="1" vertex="1">
          <mxGeometry x="400" y="340" width="120" height="60" as="geometry" />
        </mxCell>
        <mxCell id="2RjPUOcPE3Qf726Q0wJO-5" style="edgeStyle=orthogonalEdgeStyle;rounded=0;orthogonalLoop=1;jettySize=auto;html=1;exitX=0.5;exitY=1;exitDx=0;exitDy=0;" edge="1" parent="1" source="6zNmI5sbzaLCzPCIBvBJ-13" target="2RjPUOcPE3Qf726Q0wJO-2">
          <mxGeometry relative="1" as="geometry" />
        </mxCell>
        <mxCell id="2RjPUOcPE3Qf726Q0wJO-6" style="edgeStyle=orthogonalEdgeStyle;rounded=0;orthogonalLoop=1;jettySize=auto;html=1;exitX=0.5;exitY=1;exitDx=0;exitDy=0;" edge="1" parent="1" source="6zNmI5sbzaLCzPCIBvBJ-13" target="2RjPUOcPE3Qf726Q0wJO-3">
          <mxGeometry relative="1" as="geometry" />
        </mxCell>
        <mxCell id="2RjPUOcPE3Qf726Q0wJO-7" style="edgeStyle=orthogonalEdgeStyle;rounded=0;orthogonalLoop=1;jettySize=auto;html=1;exitX=0.5;exitY=1;exitDx=0;exitDy=0;" edge="1" parent="1" source="6zNmI5sbzaLCzPCIBvBJ-13" target="2RjPUOcPE3Qf726Q0wJO-4">
          <mxGeometry relative="1" as="geometry" />
        </mxCell>
        <mxCell id="2RjPUOcPE3Qf726Q0wJO-9" style="edgeStyle=orthogonalEdgeStyle;rounded=0;orthogonalLoop=1;jettySize=auto;html=1;exitX=0.5;exitY=1;exitDx=0;exitDy=0;" edge="1" parent="1" source="6zNmI5sbzaLCzPCIBvBJ-13" target="2RjPUOcPE3Qf726Q0wJO-8">
          <mxGeometry relative="1" as="geometry" />
        </mxCell>
        <mxCell id="2RjPUOcPE3Qf726Q0wJO-11" style="edgeStyle=orthogonalEdgeStyle;rounded=0;orthogonalLoop=1;jettySize=auto;html=1;exitX=0.5;exitY=1;exitDx=0;exitDy=0;" edge="1" parent="1" source="6zNmI5sbzaLCzPCIBvBJ-13" target="2RjPUOcPE3Qf726Q0wJO-10">
          <mxGeometry relative="1" as="geometry" />
        </mxCell>
        <mxCell id="6zNmI5sbzaLCzPCIBvBJ-13" value="Stablecoins" style="rounded=0;whiteSpace=wrap;html=1;" parent="1" vertex="1">
          <mxGeometry x="400" y="440" width="120" height="60" as="geometry" />
        </mxCell>
        <mxCell id="6zNmI5sbzaLCzPCIBvBJ-22" style="edgeStyle=orthogonalEdgeStyle;rounded=0;orthogonalLoop=1;jettySize=auto;html=1;exitX=0.5;exitY=0;exitDx=0;exitDy=0;entryX=0;entryY=0.5;entryDx=0;entryDy=0;" parent="1" source="6zNmI5sbzaLCzPCIBvBJ-16" target="6zNmI5sbzaLCzPCIBvBJ-20" edge="1">
          <mxGeometry relative="1" as="geometry" />
        </mxCell>
        <mxCell id="6zNmI5sbzaLCzPCIBvBJ-24" style="edgeStyle=orthogonalEdgeStyle;rounded=0;orthogonalLoop=1;jettySize=auto;html=1;exitX=1;exitY=0.5;exitDx=0;exitDy=0;entryX=0;entryY=0.5;entryDx=0;entryDy=0;" parent="1" source="6zNmI5sbzaLCzPCIBvBJ-16" target="6zNmI5sbzaLCzPCIBvBJ-23" edge="1">
          <mxGeometry relative="1" as="geometry" />
        </mxCell>
        <mxCell id="6zNmI5sbzaLCzPCIBvBJ-26" style="edgeStyle=orthogonalEdgeStyle;rounded=0;orthogonalLoop=1;jettySize=auto;html=1;exitX=0.5;exitY=1;exitDx=0;exitDy=0;entryX=0.417;entryY=-0.017;entryDx=0;entryDy=0;entryPerimeter=0;" parent="1" source="6zNmI5sbzaLCzPCIBvBJ-16" target="6zNmI5sbzaLCzPCIBvBJ-25" edge="1">
          <mxGeometry relative="1" as="geometry" />
        </mxCell>
        <mxCell id="2RjPUOcPE3Qf726Q0wJO-1" style="edgeStyle=orthogonalEdgeStyle;rounded=0;orthogonalLoop=1;jettySize=auto;html=1;exitX=0.5;exitY=0;exitDx=0;exitDy=0;entryX=0;entryY=0.5;entryDx=0;entryDy=0;" edge="1" parent="1" source="6zNmI5sbzaLCzPCIBvBJ-16" target="6zNmI5sbzaLCzPCIBvBJ-27">
          <mxGeometry relative="1" as="geometry" />
        </mxCell>
        <mxCell id="6zNmI5sbzaLCzPCIBvBJ-16" value="DeFi" style="rounded=0;whiteSpace=wrap;html=1;" parent="1" vertex="1">
          <mxGeometry x="600" y="230" width="120" height="60" as="geometry" />
        </mxCell>
        <mxCell id="6zNmI5sbzaLCzPCIBvBJ-18" value="Gaming" style="rounded=0;whiteSpace=wrap;html=1;" parent="1" vertex="1">
          <mxGeometry x="600" y="420" width="120" height="60" as="geometry" />
        </mxCell>
        <mxCell id="2RjPUOcPE3Qf726Q0wJO-20" style="edgeStyle=orthogonalEdgeStyle;rounded=0;orthogonalLoop=1;jettySize=auto;html=1;exitX=1;exitY=0.5;exitDx=0;exitDy=0;entryX=0;entryY=0.5;entryDx=0;entryDy=0;" edge="1" parent="1" source="6zNmI5sbzaLCzPCIBvBJ-20" target="2RjPUOcPE3Qf726Q0wJO-18">
          <mxGeometry relative="1" as="geometry" />
        </mxCell>
        <mxCell id="2RjPUOcPE3Qf726Q0wJO-21" style="edgeStyle=orthogonalEdgeStyle;rounded=0;orthogonalLoop=1;jettySize=auto;html=1;exitX=1;exitY=0.5;exitDx=0;exitDy=0;entryX=0;entryY=0.5;entryDx=0;entryDy=0;" edge="1" parent="1" source="6zNmI5sbzaLCzPCIBvBJ-20" target="2RjPUOcPE3Qf726Q0wJO-19">
          <mxGeometry relative="1" as="geometry" />
        </mxCell>
        <mxCell id="6zNmI5sbzaLCzPCIBvBJ-20" value="Decentralized Exchanges" style="rounded=0;whiteSpace=wrap;html=1;" parent="1" vertex="1">
          <mxGeometry x="780" y="130" width="120" height="60" as="geometry" />
        </mxCell>
        <mxCell id="6zNmI5sbzaLCzPCIBvBJ-23" value="Lending/Borrowing" style="rounded=0;whiteSpace=wrap;html=1;" parent="1" vertex="1">
          <mxGeometry x="780" y="230" width="120" height="60" as="geometry" />
        </mxCell>
        <mxCell id="6zNmI5sbzaLCzPCIBvBJ-25" value="Undercollateralized" style="rounded=0;whiteSpace=wrap;html=1;" parent="1" vertex="1">
          <mxGeometry x="780" y="330" width="120" height="60" as="geometry" />
        </mxCell>
        <mxCell id="2RjPUOcPE3Qf726Q0wJO-15" style="edgeStyle=orthogonalEdgeStyle;rounded=0;orthogonalLoop=1;jettySize=auto;html=1;exitX=1;exitY=0.5;exitDx=0;exitDy=0;entryX=0;entryY=0.5;entryDx=0;entryDy=0;" edge="1" parent="1" source="6zNmI5sbzaLCzPCIBvBJ-27" target="2RjPUOcPE3Qf726Q0wJO-14">
          <mxGeometry relative="1" as="geometry" />
        </mxCell>
        <mxCell id="2RjPUOcPE3Qf726Q0wJO-17" style="edgeStyle=orthogonalEdgeStyle;rounded=0;orthogonalLoop=1;jettySize=auto;html=1;exitX=1;exitY=0.5;exitDx=0;exitDy=0;entryX=0;entryY=0.5;entryDx=0;entryDy=0;" edge="1" parent="1" source="6zNmI5sbzaLCzPCIBvBJ-27" target="2RjPUOcPE3Qf726Q0wJO-16">
          <mxGeometry relative="1" as="geometry" />
        </mxCell>
        <mxCell id="6zNmI5sbzaLCzPCIBvBJ-27" value="Real World Assets" style="rounded=0;whiteSpace=wrap;html=1;" parent="1" vertex="1">
          <mxGeometry x="780" y="20" width="120" height="60" as="geometry" />
        </mxCell>
        <mxCell id="2RjPUOcPE3Qf726Q0wJO-2" value="MakerDAO" style="rounded=0;whiteSpace=wrap;html=1;" vertex="1" parent="1">
          <mxGeometry x="280" y="580" width="120" height="60" as="geometry" />
        </mxCell>
        <mxCell id="2RjPUOcPE3Qf726Q0wJO-3" value="Frax Finance" style="rounded=0;whiteSpace=wrap;html=1;" vertex="1" parent="1">
          <mxGeometry x="440" y="580" width="120" height="60" as="geometry" />
        </mxCell>
        <mxCell id="2RjPUOcPE3Qf726Q0wJO-4" value="Liquit" style="rounded=0;whiteSpace=wrap;html=1;" vertex="1" parent="1">
          <mxGeometry x="590" y="580" width="120" height="60" as="geometry" />
        </mxCell>
        <mxCell id="2RjPUOcPE3Qf726Q0wJO-8" value="Circle USD" style="rounded=0;whiteSpace=wrap;html=1;" vertex="1" parent="1">
          <mxGeometry x="120" y="580" width="120" height="60" as="geometry" />
        </mxCell>
        <mxCell id="2RjPUOcPE3Qf726Q0wJO-10" value="Paxos USD" style="rounded=0;whiteSpace=wrap;html=1;" vertex="1" parent="1">
          <mxGeometry x="740" y="580" width="120" height="60" as="geometry" />
        </mxCell>
        <mxCell id="2RjPUOcPE3Qf726Q0wJO-12" value="Bitcoin" style="rounded=0;whiteSpace=wrap;html=1;" vertex="1" parent="1">
          <mxGeometry x="10" y="250" width="120" height="60" as="geometry" />
        </mxCell>
        <mxCell id="2RjPUOcPE3Qf726Q0wJO-14" value="Onchain Treasuries" style="rounded=0;whiteSpace=wrap;html=1;" vertex="1" parent="1">
          <mxGeometry x="950" y="20" width="120" height="60" as="geometry" />
        </mxCell>
        <mxCell id="2RjPUOcPE3Qf726Q0wJO-16" value="Onchain Loans" style="rounded=0;whiteSpace=wrap;html=1;" vertex="1" parent="1">
          <mxGeometry x="950" y="100" width="120" height="60" as="geometry" />
        </mxCell>
        <mxCell id="2RjPUOcPE3Qf726Q0wJO-18" value="AMM" style="rounded=0;whiteSpace=wrap;html=1;" vertex="1" parent="1">
          <mxGeometry x="950" y="180" width="120" height="60" as="geometry" />
        </mxCell>
        <mxCell id="2RjPUOcPE3Qf726Q0wJO-19" value="Orderbook" style="rounded=0;whiteSpace=wrap;html=1;" vertex="1" parent="1">
          <mxGeometry x="950" y="260" width="120" height="60" as="geometry" />
        </mxCell>
      </root>
    </mxGraphModel>
  </diagram>
</mxfile>
